<svg width="109" height="36" viewBox="0 0 109 36" fill="none" xmlns="http://www.w3.org/2000/svg">
<path d="M18.0243 0.00138419C22.7981 0.0610767 27.1182 1.97796 30.2796 5.05366L24.6623 9.93791C22.8433 8.36477 20.45 7.40044 17.7945 7.40041C11.9676 7.40041 7.40042 12.042 7.40042 17.5758C7.40042 19.7031 8.07586 21.6981 9.23778 23.3487L3.63404 28.2211C1.35398 25.2667 0 21.5774 0 17.5758C9.68916e-06 7.86897 7.96695 0 17.7945 0L18.0243 0.00138419Z" fill="#0252EF"/>
<path d="M35.1514 21.4615C33.3608 29.2987 26.2703 35.1521 17.7945 35.1522L17.5642 35.1505C13.3823 35.0981 9.54819 33.621 6.53638 31.1879L12.2724 26.2004C13.8633 27.1802 15.7512 27.7518 17.7945 27.7518C22.1804 27.7517 25.8521 25.1219 27.4002 21.4615H35.1514Z" fill="#00ADF1"/>
<path d="M18.1655 21.4689V14.1555H25.2504C26.7556 14.1555 28.2019 14.7409 29.2833 15.7879L35.1514 21.4689H18.1655Z" fill="#01FFFF"/>
<path d="M48.3674 7.02099C48.9913 7.02099 49.5984 7.08001 50.1886 7.19805C50.7788 7.31609 51.3437 7.49315 51.8834 7.72923C52.4398 7.98218 52.9542 8.27728 53.4263 8.61454C53.9154 8.95181 54.3622 9.33966 54.7669 9.7781L52.6928 11.8523C51.5292 10.5707 50.0874 9.92986 48.3674 9.92986C46.6642 9.92986 45.2477 10.5369 44.1179 11.7511C42.9881 12.9652 42.4232 14.4407 42.4232 16.1776C42.4232 17.8977 42.9881 19.3732 44.1179 20.6042C45.2477 21.8183 46.6642 22.4254 48.3674 22.4254C50.0874 22.4254 51.5208 21.7846 52.6675 20.503C53.0385 20.0983 53.3336 19.6599 53.5528 19.1877C53.7889 18.6987 53.9491 18.1759 54.0334 17.6194H49.4298V14.7105H57.2205V16.1776C57.2205 18.6734 56.3942 20.8065 54.7416 22.5772C54.3369 23.0156 53.8901 23.4035 53.401 23.7407C52.9289 24.078 52.4145 24.3646 51.8581 24.6007C50.762 25.0898 49.5984 25.3343 48.3674 25.3343C45.8379 25.3343 43.7301 24.4405 42.0438 22.653C40.3574 20.8656 39.5143 18.7071 39.5143 16.1776C39.5143 13.6313 40.3659 11.4644 42.069 9.67692C43.7554 7.9063 45.8548 7.02099 48.3674 7.02099ZM70.3901 19.8453H61.2335C61.3178 20.1995 61.4442 20.5283 61.6129 20.8318C61.7984 21.1354 62.026 21.4052 62.2958 21.6413C62.9198 22.164 63.6533 22.4254 64.4965 22.4254C65.7781 22.4254 66.7814 22.0628 67.5065 21.3377L69.5554 23.4119C68.2738 24.6935 66.5875 25.3343 64.4965 25.3343C62.6753 25.3343 61.1323 24.685 59.8676 23.3866C58.6028 22.0881 57.9705 20.5283 57.9705 18.7071C57.9705 16.8522 58.586 15.2839 59.817 14.0023C61.0311 12.7207 62.5488 12.0799 64.37 12.0799C66.1238 12.0799 67.574 12.7123 68.7207 13.977C69.8336 15.2249 70.3901 16.8016 70.3901 18.7071V19.8453ZM64.3194 14.8623C63.4931 14.8623 62.7849 15.1153 62.1947 15.6211C61.6719 16.1102 61.3346 16.7172 61.1829 17.4424H67.203C67.0512 16.6667 66.7393 16.0512 66.2671 15.5959C65.7781 15.1068 65.1288 14.8623 64.3194 14.8623ZM83.4396 19.8453H74.2829C74.3672 20.1995 74.4937 20.5283 74.6623 20.8318C74.8478 21.1354 75.0755 21.4052 75.3453 21.6413C75.9692 22.164 76.7028 22.4254 77.5459 22.4254C78.8275 22.4254 79.8309 22.0628 80.556 21.3377L82.6048 23.4119C81.3232 24.6935 79.6369 25.3343 77.5459 25.3343C75.7247 25.3343 74.1817 24.685 72.917 23.3866C71.6523 22.0881 71.0199 20.5283 71.0199 18.7071C71.0199 16.8522 71.6354 15.2839 72.8664 14.0023C74.0805 12.7207 75.5982 12.0799 77.4194 12.0799C79.1732 12.0799 80.6234 12.7123 81.7701 13.977C82.8831 15.2249 83.4396 16.8016 83.4396 18.7071V19.8453ZM77.3688 14.8623C76.5426 14.8623 75.8343 15.1153 75.2441 15.6211C74.7213 16.1102 74.3841 16.7172 74.2323 17.4424H80.2524C80.1007 16.6667 79.7887 16.0512 79.3165 15.5959C78.8275 15.1068 78.1783 14.8623 77.3688 14.8623ZM90.3171 12.0799C91.7505 12.0799 92.9225 12.5436 93.8331 13.4711C93.9174 13.5386 93.9933 13.6144 94.0607 13.6988C94.1282 13.7831 94.1956 13.8674 94.2631 13.9517V12.3834H96.8937V23.6901C96.8937 25.7474 96.3204 27.3831 95.1737 28.5973C94.0438 29.8114 92.5346 30.4185 90.6459 30.4185C89.7185 30.4185 88.9259 30.351 88.2682 30.2161C87.6275 30.0981 87.071 29.9295 86.5988 29.7102C86.1266 29.491 85.6966 29.2465 85.3088 28.9767L86.6494 26.6243C87.2396 27.029 87.8382 27.3157 88.4453 27.4843C89.0524 27.6529 89.7438 27.7373 90.5195 27.7373C91.6662 27.7373 92.5262 27.3663 93.0995 26.6243C93.3356 26.3039 93.5211 25.9498 93.656 25.5619C93.8078 25.1909 93.8921 24.7778 93.9089 24.3225C93.9089 24.2213 93.9089 24.137 93.9089 24.0695C93.9089 23.9852 93.9174 23.8925 93.9342 23.7913C93.8836 23.8419 93.8331 23.9009 93.7825 23.9684C93.7487 24.019 93.7066 24.0695 93.656 24.1201C92.796 24.9296 91.683 25.3343 90.3171 25.3343C88.5128 25.3343 87.0204 24.6935 85.84 23.4119C84.6596 22.1303 84.0693 20.562 84.0693 18.7071C84.0693 16.869 84.6596 15.3007 85.84 14.0023C87.0204 12.7207 88.5128 12.0799 90.3171 12.0799ZM90.5448 14.9635C89.5161 14.9635 88.673 15.326 88.0153 16.0512C87.3408 16.7763 87.0035 17.6616 87.0035 18.7071C87.0035 19.7526 87.3408 20.6463 88.0153 21.3883C88.673 22.0966 89.5161 22.4507 90.5448 22.4507C91.5565 22.4507 92.3744 22.0966 92.9983 21.3883C93.3187 21.0173 93.5633 20.6126 93.7319 20.1742C93.9005 19.7357 93.9848 19.2467 93.9848 18.7071C93.9848 18.1843 93.9005 17.7037 93.7319 17.2653C93.5633 16.8269 93.3187 16.4221 92.9983 16.0512C92.3744 15.326 91.5565 14.9635 90.5448 14.9635ZM107.483 14.66L104.751 15.6211C104.65 15.3345 104.464 15.1068 104.195 14.9382C103.908 14.7864 103.587 14.7105 103.233 14.7105C102.761 14.7105 102.39 14.8286 102.12 15.0647C101.851 15.3007 101.724 15.5874 101.741 15.9247C101.758 16.38 102.146 16.7172 102.905 16.9365C103.09 16.9871 103.267 17.0376 103.436 17.0882C103.604 17.122 103.765 17.1641 103.916 17.2147C105.063 17.4845 105.948 17.8977 106.572 18.4541C107.432 19.213 107.862 20.1657 107.862 21.3124C107.845 22.5772 107.348 23.5889 106.37 24.3478C105.527 25.0054 104.456 25.3343 103.157 25.3343C102.078 25.3174 101.125 25.0729 100.299 24.6007C99.4729 24.1286 98.8743 23.454 98.5033 22.5772L101.26 21.5907C101.598 22.2989 102.196 22.653 103.056 22.653C103.63 22.653 104.077 22.5181 104.397 22.2483C104.734 21.9617 104.903 21.616 104.903 21.2113C104.886 20.7222 104.414 20.3344 103.486 20.0477C103.335 19.9803 103.166 19.9212 102.98 19.8706C102.812 19.8201 102.635 19.7695 102.449 19.7189C101.893 19.6008 101.387 19.4238 100.932 19.1877C100.493 18.9516 100.114 18.6649 99.7933 18.3277C99.1525 17.6869 98.8237 16.8774 98.8068 15.8994C98.8068 14.7358 99.2368 13.8084 100.097 13.117C100.94 12.4256 101.969 12.0799 103.183 12.0799C104.262 12.063 105.173 12.2907 105.915 12.7629C106.623 13.2013 107.146 13.8337 107.483 14.66Z" fill="#2F2F2F"/>
</svg>
