<svg width="20" height="21" viewBox="0 0 20 21" fill="none" xmlns="http://www.w3.org/2000/svg">
<path d="M3.33329 15.1111H4.99996V18.5119L9.25079 15.1111H13.3333C14.2525 15.1111 15 14.3636 15 13.4444V6.77778C15 5.85861 14.2525 5.11111 13.3333 5.11111H3.33329C2.41413 5.11111 1.66663 5.85861 1.66663 6.77778V13.4444C1.66663 14.3636 2.41413 15.1111 3.33329 15.1111Z" fill="#888888"/>
<path d="M16.6667 1.77777H6.66667C5.7475 1.77777 5 2.52527 5 3.44444H15C15.9192 3.44444 16.6667 4.19194 16.6667 5.1111V11.7778C17.5858 11.7778 18.3333 11.0303 18.3333 10.1111V3.44444C18.3333 2.52527 17.5858 1.77777 16.6667 1.77777Z" fill="#888888"/>
</svg>
