<svg width="12" height="12" viewBox="0 0 12 12" fill="none" xmlns="http://www.w3.org/2000/svg">
<rect width="12" height="12" fill="white"/>
<path d="M3 1C1.89543 1 1 1.89543 1 3V9C1 10.1046 1.89543 11 3 11H9C10.1046 11 11 10.1046 11 9V6C11 5.72386 10.7761 5.5 10.5 5.5C10.2239 5.5 10 5.72386 10 6V9C10 9.55229 9.55229 10 9 10H3C2.44772 10 2 9.55229 2 9V3C2 2.44772 2.44772 2 3 2H4.34211C4.61825 2 4.84211 1.77614 4.84211 1.5C4.84211 1.22386 4.61825 1 4.34211 1H3Z" fill="#7B37F0"/>
<path d="M3.40286 7.78454L3.52639 6.91986C3.57229 6.59857 3.72116 6.30083 3.95065 6.07133L7.6021 2.41989L9.3332 4.151L5.68176 7.80244C5.45227 8.03193 5.15453 8.1808 4.83323 8.2267L3.96855 8.35023C3.63857 8.39737 3.35572 8.11453 3.40286 7.78454Z" fill="#7B37F0"/>
<path d="M10.0351 3.43865L8.31445 1.71802C8.79507 1.33276 9.49885 1.36295 9.9445 1.8086C10.3901 2.25424 10.4203 2.95802 10.0351 3.43865Z" fill="#7B37F0"/>
</svg>
