<svg width="59" height="53" viewBox="0 0 59 53" fill="none" xmlns="http://www.w3.org/2000/svg">
<path d="M29.5 52.5022C45.7364 52.5022 58.8985 47.3388 58.8985 40.9694C58.8985 34.6 45.7364 29.4366 29.5 29.4366C13.2637 29.4366 0.101562 34.6 0.101562 40.9694C0.101562 47.3388 13.2637 52.5022 29.5 52.5022Z" fill="white"/>
<path d="M17.7196 6.46667L16.5602 13.7369H12.7921L13.9515 6.46667H17.7196Z" fill="white"/>
<path d="M36.4572 13.9797C36.7081 13.9797 36.8801 14.1756 36.841 14.4177C36.8028 14.6598 36.5687 14.8565 36.3171 14.8565H21.5896C21.3387 14.8565 21.1659 14.6598 21.205 14.4177C21.2432 14.1756 21.4781 13.9797 21.7289 13.9797H36.4572Z" fill="#5D5FEF"/>
<path d="M37.6812 8.78705H46.2612L44.9744 16.8559L44.4648 20.0523H21.885C21.0624 20.0523 20.4278 19.5203 20.337 18.7535L20.2669 18.1539C20.1762 17.3878 19.5415 16.8551 18.7189 16.8551H12.2952L12.6528 14.6112H17.3294L18.7683 5.58913H14.0917L14.9246 0.364624H38.8748L39.0006 0.507959L37.6812 8.78705ZM36.7861 11.9189C37.0369 11.9189 37.2711 11.723 37.3093 11.4809C37.3475 11.2388 37.1763 11.0422 36.9255 11.0422H22.1972C21.9463 11.0422 21.7114 11.2388 21.6724 11.4809C21.6342 11.723 21.8062 11.9189 22.057 11.9189H36.7861ZM36.3179 14.8556C36.5687 14.8556 36.8028 14.6589 36.8419 14.4169C36.8801 14.1748 36.7089 13.9789 36.458 13.9789H21.7289C21.4781 13.9789 21.2432 14.1748 21.205 14.4169C21.1668 14.6589 21.3388 14.8556 21.5896 14.8556H36.3179ZM35.8497 17.7908C36.1005 17.7908 36.3346 17.5949 36.3728 17.3528C36.4111 17.1107 36.2399 16.9141 35.989 16.9141H21.2607C21.0099 16.9141 20.775 17.1107 20.736 17.3528C20.6977 17.5949 20.8697 17.7908 21.1206 17.7908H35.8497Z" fill="white"/>
<path d="M35.989 16.9149C36.2399 16.9149 36.4111 17.1115 36.3728 17.3536C36.3346 17.5957 36.1005 17.7916 35.8497 17.7916H21.1214C20.8705 17.7916 20.6977 17.5957 20.7368 17.3536C20.775 17.1115 21.0099 16.9149 21.2615 16.9149H35.989Z" fill="#5D5FEF"/>
<path d="M35.989 16.9149C36.2399 16.9149 36.4111 17.1115 36.3728 17.3536C36.3346 17.5957 36.1005 17.7916 35.8497 17.7916H21.1214C20.8705 17.7916 20.6977 17.5957 20.7368 17.3536C20.775 17.1115 21.0099 16.9149 21.2615 16.9149H35.989Z" fill="#5D5FEF"/>
<path d="M52.161 20.315C52.1602 20.2904 52.1578 20.2657 52.1554 20.241C52.1538 20.2266 52.153 20.2115 52.1514 20.1972C52.1482 20.1701 52.1435 20.143 52.1387 20.116C52.1371 20.1064 52.1363 20.0969 52.1339 20.0873C52.1339 20.0857 52.1331 20.0841 52.1323 20.0817C52.1267 20.0531 52.1196 20.0244 52.1124 19.9965C52.1108 19.9894 52.1092 19.9814 52.1068 19.9742C52.0973 19.9392 52.0861 19.9041 52.0734 19.8699C52.0734 19.8691 52.0726 19.8683 52.0726 19.8675C52.0718 19.8659 52.071 19.8643 52.0702 19.8619C52.0511 19.8102 52.0296 19.7608 52.0049 19.7122C52.0025 19.7083 52.0017 19.7035 51.9993 19.6995C51.9985 19.6971 51.9969 19.6955 51.9953 19.6931C51.973 19.6509 51.9492 19.6095 51.9229 19.5697C51.9205 19.5657 51.9181 19.5617 51.9157 19.5578C51.9038 19.5402 51.8918 19.5227 51.8799 19.506L50.382 17.4635C50.3972 17.4842 50.4115 17.5057 50.425 17.5272C50.4513 17.567 50.4752 17.6084 50.4975 17.6506C50.5007 17.657 50.5039 17.6634 50.5071 17.6697C50.531 17.7183 50.5533 17.7685 50.5724 17.8194C50.5732 17.8218 50.5747 17.8242 50.5755 17.8274C50.5875 17.8616 50.5986 17.8967 50.609 17.9317C50.6114 17.9389 50.6122 17.9469 50.6146 17.954C50.6217 17.9819 50.6289 18.0106 50.6345 18.0392C50.6369 18.0504 50.6385 18.0615 50.64 18.0727C50.6448 18.0997 50.6488 18.126 50.6528 18.1539C50.6544 18.1682 50.6552 18.1834 50.6568 18.1977C50.6592 18.2224 50.6608 18.2471 50.6623 18.2717C50.6631 18.2877 50.6631 18.3036 50.6631 18.3195C50.6631 18.3434 50.6631 18.3681 50.6623 18.392C50.6615 18.4079 50.6615 18.4246 50.66 18.4414C50.6584 18.466 50.656 18.4907 50.6536 18.5162C50.652 18.5321 50.6504 18.5481 50.648 18.5648C50.644 18.5919 50.64 18.6181 50.6345 18.6452C50.6321 18.6595 50.6297 18.6739 50.6265 18.6882C50.6193 18.7232 50.6106 18.7583 50.601 18.7933C50.5994 18.7997 50.5978 18.8061 50.5963 18.8132C50.5843 18.8546 50.5708 18.8968 50.5556 18.9382C50.5509 18.951 50.5453 18.9637 50.5405 18.9765C50.5294 19.0059 50.5174 19.0354 50.5047 19.0641C50.4895 19.0975 50.4744 19.1309 50.4577 19.1652L39.7117 40.3658L39.6575 40.2925C39.6384 40.3363 39.6177 40.3785 39.5954 40.4207C39.5938 40.4239 39.5922 40.4263 39.5914 40.4295C39.5699 40.4701 39.5468 40.5091 39.523 40.5481C39.4903 40.6007 39.4561 40.6508 39.4194 40.7002C39.4091 40.7146 39.3979 40.7273 39.3876 40.7408C39.3629 40.7719 39.3382 40.8029 39.3119 40.8332C39.2984 40.8491 39.2841 40.8643 39.2697 40.8794C39.2458 40.9049 39.2212 40.9303 39.1957 40.955C39.1806 40.9694 39.1662 40.9845 39.1511 40.998C39.124 41.0227 39.0961 41.0466 39.0683 41.0705C39.0539 41.0824 39.0404 41.0944 39.0261 41.1063C38.9831 41.1414 38.9385 41.1748 38.8923 41.2059C38.8445 41.2385 38.7951 41.2688 38.745 41.2982C38.7314 41.3062 38.7171 41.3134 38.7028 41.3213C38.6598 41.3452 38.616 41.3675 38.5714 41.3882C38.5539 41.397 38.5355 41.4049 38.518 41.4129C38.5013 41.4201 38.4846 41.4272 38.4679 41.4336C38.4408 41.4448 38.4137 41.4551 38.3866 41.4647C38.3691 41.471 38.3524 41.4766 38.3349 41.483C38.3078 41.4917 38.2807 41.5005 38.2537 41.5077C38.2345 41.5132 38.2162 41.5188 38.1971 41.5236C38.1693 41.5308 38.1406 41.5371 38.1119 41.5435C38.0936 41.5475 38.0753 41.5515 38.0578 41.5554C38.0267 41.561 37.9949 41.5658 37.963 41.5698C37.9479 41.5722 37.932 41.5746 37.9168 41.5761C37.8698 41.5817 37.8221 41.5857 37.7751 41.5873L39.2729 43.6298C39.2753 43.6298 39.2777 43.629 39.2801 43.629L39.2809 43.6298C39.2857 43.6298 39.2904 43.6298 39.296 43.6298C39.3183 43.6298 39.3398 43.629 39.3621 43.6282C39.3717 43.6274 39.3812 43.6258 39.3908 43.6258C39.4386 43.6234 39.4863 43.6186 39.5333 43.6123C39.5476 43.6107 39.5612 43.6091 39.5755 43.6075C39.636 43.5987 39.6958 43.5868 39.7555 43.5717C39.7698 43.5685 39.7833 43.5637 39.7969 43.5605C39.8279 43.5518 39.8598 43.5446 39.8908 43.5342C39.9076 43.5287 39.9243 43.5223 39.941 43.5167C39.9538 43.5127 39.9657 43.508 39.9784 43.504C40.0302 43.4849 40.0812 43.465 40.1313 43.4427C40.1345 43.4411 40.1377 43.4387 40.1417 43.4379C40.1449 43.4363 40.1488 43.4355 40.1528 43.4331C40.1528 43.4331 40.1528 43.4323 40.152 43.4323C40.152 43.4323 40.152 43.4331 40.1528 43.4331C40.2086 43.4076 40.2627 43.379 40.3161 43.3487C40.3177 43.3479 40.3185 43.3471 40.32 43.3463C40.336 43.3375 40.3503 43.3272 40.3654 43.3176C40.4013 43.2961 40.4371 43.2746 40.4721 43.2508C40.4753 43.2492 40.4777 43.2476 40.4809 43.2452C40.5024 43.2308 40.5223 43.2141 40.543 43.1982C40.5677 43.1799 40.5924 43.1632 40.6155 43.1441C40.6187 43.1417 40.6211 43.1401 40.6242 43.1377C40.6465 43.1202 40.6664 43.1003 40.6879 43.0819C40.7063 43.066 40.7254 43.0509 40.7429 43.0342C40.7469 43.0302 40.7508 43.027 40.7548 43.023C40.7556 43.0222 40.7556 43.0222 40.7564 43.0214C40.7572 43.0206 40.7572 43.0206 40.758 43.0198C40.7628 43.0158 40.7676 43.0111 40.7715 43.0071C40.7819 42.9975 40.7899 42.9864 40.8002 42.9768C40.8273 42.9498 40.8552 42.9227 40.8806 42.894C40.8878 42.8861 40.8942 42.8773 40.9013 42.8693C40.9069 42.863 40.9141 42.8566 40.9197 42.8502C40.9252 42.8438 40.9308 42.8367 40.9364 42.8303C40.9547 42.808 40.9722 42.7857 40.9897 42.7626C40.9929 42.7586 40.9969 42.7547 41.0001 42.7499C41.0009 42.7483 41.0017 42.7467 41.0033 42.7451C41.0399 42.6965 41.0741 42.6456 41.1068 42.5938C41.11 42.5882 41.114 42.5835 41.1171 42.5787C41.1203 42.5739 41.1227 42.5683 41.1259 42.5635C41.1514 42.5213 41.1753 42.4791 41.1976 42.4345L51.9595 21.2053C51.9738 21.1766 51.9882 21.1472 52.0009 21.1185C52.0033 21.1137 52.0049 21.1089 52.0065 21.105C52.0192 21.0755 52.0312 21.046 52.0423 21.0174C52.0471 21.0046 52.0527 20.9919 52.0575 20.9791C52.0726 20.9377 52.0861 20.8955 52.0981 20.8541C52.0997 20.8478 52.1012 20.8414 52.1028 20.8342C52.1124 20.7992 52.1212 20.7641 52.1283 20.7291C52.1315 20.7148 52.1339 20.7004 52.1363 20.6861C52.1411 20.659 52.1458 20.632 52.1498 20.6057C52.1522 20.5898 52.1538 20.5738 52.1554 20.5571C52.1578 20.5324 52.1602 20.5069 52.1618 20.4823C52.1626 20.4655 52.1634 20.4496 52.1642 20.4329C52.165 20.4082 52.165 20.3843 52.165 20.3604C52.1618 20.3469 52.1618 20.331 52.161 20.315Z" fill="#A5A6F6"/>
<path d="M39.1837 43.8154L37.4303 41.4241L37.7663 41.4105C37.8093 41.4089 37.8523 41.405 37.8953 41.4002C37.9025 41.3994 37.9089 41.3986 37.916 41.397L37.9375 41.3938C37.9662 41.3898 37.9949 41.3859 38.0235 41.3803C38.0347 41.3779 38.045 41.3755 38.0554 41.3739L38.0729 41.3699C38.0984 41.3644 38.1247 41.3588 38.1501 41.3524C38.1645 41.3484 38.1788 41.3444 38.1923 41.3405L38.2019 41.3373C38.2266 41.3301 38.2521 41.3229 38.2768 41.3142C38.2927 41.3086 38.3086 41.303 38.3245 41.2975C38.3492 41.2887 38.3747 41.2791 38.3994 41.2688C38.4169 41.2616 38.4312 41.2561 38.4456 41.2497C38.4567 41.2449 38.4679 41.2393 38.479 41.2338L38.4949 41.2266C38.5364 41.2075 38.5762 41.1868 38.616 41.1645L38.655 41.143C38.7068 41.1127 38.7506 41.0857 38.7904 41.0578C38.8294 41.0307 38.87 41.0012 38.913 40.9662C38.921 40.9598 38.9281 40.9535 38.9353 40.9471L38.952 40.9328C38.9775 40.9113 39.0038 40.889 39.0285 40.8659C39.0404 40.8547 39.0523 40.8428 39.0643 40.8308C39.093 40.803 39.1153 40.7799 39.1376 40.756C39.1503 40.7424 39.163 40.7281 39.1758 40.7138C39.2005 40.6859 39.2236 40.658 39.2459 40.6286L39.2586 40.6126C39.2642 40.6055 39.2697 40.5983 39.2753 40.5911C39.3104 40.545 39.3422 40.498 39.3701 40.4518C39.3924 40.416 39.4131 40.3801 39.433 40.3435L39.4362 40.3363C39.4569 40.2973 39.476 40.2583 39.4927 40.2185L39.6169 39.9334L39.6822 40.0226L50.2992 19.084C50.3152 19.0529 50.3287 19.0227 50.3422 18.9916C50.3542 18.9645 50.3645 18.9383 50.3749 18.9112L50.3884 18.8777C50.402 18.8395 50.4147 18.8013 50.4258 18.7639L50.4306 18.7456C50.4394 18.7145 50.4474 18.6826 50.4537 18.6516C50.4553 18.6444 50.4561 18.6373 50.4577 18.6301L50.4609 18.6126C50.4657 18.5879 50.4696 18.564 50.4728 18.5401C50.4744 18.529 50.4752 18.5178 50.4768 18.5059L50.4776 18.4971C50.48 18.4748 50.4824 18.4525 50.4832 18.4302C50.484 18.4159 50.4848 18.4016 50.4848 18.3864C50.4856 18.3641 50.4856 18.3426 50.4856 18.3211C50.4856 18.3076 50.4856 18.2933 50.4848 18.2789C50.484 18.2566 50.4824 18.2351 50.48 18.2136L50.4784 18.1985C50.4776 18.1905 50.4768 18.1826 50.476 18.1746C50.4728 18.1507 50.4689 18.1268 50.4649 18.1029L50.4601 18.0727C50.4553 18.0472 50.4489 18.0225 50.4426 17.9978L50.4386 17.9827C50.429 17.9477 50.4195 17.9166 50.4083 17.8871L50.4059 17.8816C50.39 17.837 50.3709 17.794 50.3486 17.7486L50.343 17.7366C50.3223 17.6968 50.3008 17.6602 50.2769 17.6236C50.265 17.6053 50.2531 17.5869 50.2403 17.5694L50.2387 17.5678L50.5278 17.356L52.0256 19.3985C52.0399 19.4176 52.0535 19.4367 52.0662 19.4566L52.0774 19.475C52.1036 19.5156 52.1299 19.5586 52.153 19.6032L52.1594 19.6151C52.1626 19.6215 52.1658 19.6279 52.1681 19.635C52.1952 19.6892 52.2175 19.7409 52.2366 19.7919L52.2446 19.8118C52.2581 19.8508 52.2701 19.8874 52.2804 19.9241C52.282 19.9304 52.2836 19.9376 52.2852 19.9448C52.2948 19.9806 52.3019 20.0125 52.3083 20.0443L52.3099 20.0531C52.3115 20.0594 52.3123 20.0674 52.3139 20.0762C52.3202 20.1128 52.325 20.1423 52.329 20.1733C52.3306 20.1861 52.3314 20.1988 52.333 20.2115L52.3338 20.2219C52.3362 20.249 52.3386 20.276 52.3394 20.3039C52.3401 20.3214 52.3401 20.3389 52.3409 20.3565C52.3417 20.3835 52.3409 20.4106 52.3401 20.4377C52.3394 20.4552 52.3386 20.4735 52.3378 20.4918C52.3362 20.5189 52.3338 20.5468 52.3306 20.5746L52.3298 20.5826C52.3282 20.5977 52.3266 20.6129 52.3242 20.628C52.3202 20.6575 52.3155 20.6869 52.3099 20.7164L52.3075 20.7299C52.3059 20.7411 52.3035 20.753 52.3011 20.7642C52.2932 20.8024 52.2836 20.8414 52.2733 20.8796C52.2709 20.8892 52.2693 20.8956 52.2677 20.9019C52.2549 20.9473 52.2398 20.9927 52.2231 21.0381C52.2191 21.0476 52.2159 21.058 52.2119 21.0676L52.2072 21.0803C52.1952 21.1121 52.1825 21.144 52.1681 21.1759C52.1666 21.1806 52.1642 21.1854 52.1618 21.191C52.1474 21.2228 52.1323 21.2539 52.1164 21.2857L41.3552 42.5174C41.3329 42.5604 41.3075 42.6066 41.2772 42.6575C41.2748 42.6623 41.2716 42.6679 41.2684 42.6735C41.2645 42.6806 41.2597 42.6862 41.2557 42.6926C41.2199 42.7499 41.1848 42.8017 41.1482 42.851L41.1442 42.8566L41.1466 42.8598L41.0542 42.9689L40.9133 43.1345L40.9069 43.1266C40.9029 43.1305 40.899 43.1345 40.895 43.1385L40.8639 43.168C40.8504 43.1807 40.8369 43.1919 40.8233 43.2038L40.7843 43.238C40.7684 43.2524 40.7524 43.2667 40.7357 43.2802L40.723 43.2898C40.7071 43.3025 40.6871 43.3169 40.6672 43.3312L40.6266 43.3615C40.6115 43.3734 40.5956 43.3854 40.5796 43.3965L40.5661 43.4053C40.5343 43.4276 40.496 43.4499 40.4586 43.4729L40.4411 43.4841C40.4331 43.4897 40.4244 43.4944 40.4156 43.5L40.4212 43.5072L40.2356 43.594C40.2325 43.5956 40.2293 43.5972 40.2261 43.5988L40.0955 43.6593L40.0923 43.6553C40.0748 43.6617 40.0565 43.6688 40.0374 43.676L39.9808 43.6959C39.9681 43.7007 39.9561 43.7047 39.9434 43.7087C39.9163 43.7174 39.8885 43.7246 39.8614 43.7317L39.8279 43.7389C39.8176 43.7421 39.8072 43.7445 39.7969 43.7477C39.7324 43.7636 39.6663 43.7763 39.601 43.7867C39.5898 43.7883 39.5795 43.7899 39.5684 43.7907L39.5548 43.7923C39.5023 43.7994 39.4497 43.8042 39.3995 43.8066C39.3876 43.8082 39.378 43.809 39.3685 43.8098C39.3438 43.8106 39.3199 43.8114 39.296 43.8114H39.2793H39.2761L39.1837 43.8154ZM38.1 41.7307L39.3613 43.4499C39.3677 43.4491 39.3733 43.4483 39.3796 43.4483C39.4226 43.4459 39.4664 43.4419 39.5094 43.4363L39.5476 43.4315C39.6026 43.4236 39.6575 43.4124 39.7117 43.3989L39.7714 43.383C39.7929 43.3774 39.8152 43.3718 39.8359 43.3647C39.8439 43.3623 39.8518 43.3591 39.8598 43.3567L39.9155 43.3368C39.9705 43.3169 40.0151 43.2986 40.0557 43.2802C40.0541 43.2802 40.0597 43.2779 40.0644 43.2755L40.078 43.2699C40.1258 43.2476 40.1751 43.2221 40.2245 43.1942L40.2317 43.1903C40.2364 43.1879 40.2404 43.1847 40.2452 43.1815C40.2532 43.1759 40.2619 43.1712 40.2699 43.1656C40.3049 43.1449 40.3368 43.125 40.3678 43.1043L40.3806 43.0963C40.3861 43.0923 40.3973 43.0836 40.4076 43.0756L40.4554 43.0406C40.4706 43.0294 40.4857 43.0183 40.5008 43.0063L40.5128 42.9976C40.5207 42.9912 40.5319 42.9808 40.5438 42.9705L40.5924 42.9283C40.6011 42.9211 40.6107 42.9132 40.6187 42.9052L40.6521 42.8725C40.6585 42.8654 40.6648 42.859 40.6712 42.8518L40.6871 42.8359C40.7071 42.816 40.727 42.7969 40.7453 42.7762C40.754 42.765 40.7588 42.7595 40.7636 42.7539C40.7692 42.7475 40.7739 42.7419 40.7795 42.7372L40.9157 42.851L40.7811 42.7364L40.7962 42.7189C40.8122 42.6997 40.8273 42.6798 40.8416 42.6607C40.8472 42.6536 40.8504 42.6496 40.8536 42.6456L40.8584 42.6392C40.8886 42.5994 40.9189 42.554 40.9515 42.5023C40.9547 42.4967 40.9587 42.4911 40.9627 42.4855C40.9627 42.4847 40.9659 42.4792 40.969 42.4744C40.9921 42.4362 41.0144 42.3972 41.0343 42.3573L51.7963 21.1289C51.8098 21.1026 51.8226 21.0755 51.8345 21.0492C51.8353 21.0461 51.8377 21.0413 51.8401 21.0357C51.8512 21.0102 51.8624 20.9832 51.8719 20.9569L51.8855 20.9226C51.899 20.8852 51.9117 20.847 51.9221 20.8096L51.9269 20.792C51.9356 20.7602 51.9436 20.7291 51.95 20.6973L51.9571 20.6583C51.9611 20.6344 51.9659 20.6097 51.9691 20.5858C51.9707 20.5746 51.9715 20.5635 51.9731 20.5516L51.9738 20.5428C51.9762 20.5205 51.9786 20.4982 51.9794 20.4759C51.9802 20.4616 51.981 20.4472 51.981 20.4321C51.9818 20.4098 51.9818 20.3883 51.9818 20.3668C51.9818 20.3525 51.9818 20.3389 51.981 20.3246C51.9802 20.3023 51.9786 20.2808 51.9762 20.2593L51.9754 20.2466C51.9746 20.2378 51.9738 20.2291 51.9731 20.2203C51.9699 20.1964 51.9659 20.1725 51.9619 20.1486L51.9579 20.1239C51.9571 20.1216 51.9571 20.1184 51.9563 20.116C51.9516 20.0937 51.946 20.0682 51.9388 20.0435L51.9348 20.0276C51.9261 19.9941 51.9165 19.9639 51.9054 19.9344C51.9046 19.932 51.903 19.9289 51.9022 19.9257C51.8863 19.8827 51.8679 19.8397 51.8448 19.7935L51.8369 19.7768C51.8186 19.7409 51.7979 19.7059 51.7732 19.6685L51.7628 19.6517C51.7565 19.643 51.7461 19.6279 51.735 19.6127L50.8407 18.3928C50.8407 18.3944 50.8407 18.3968 50.8407 18.3984C50.8399 18.4159 50.8391 18.4342 50.8383 18.4525C50.8367 18.4804 50.8344 18.5075 50.8312 18.5353L50.8304 18.5433C50.8288 18.5584 50.8272 18.5736 50.8256 18.5879C50.8216 18.6174 50.816 18.6476 50.8113 18.6771L50.8089 18.6906C50.8073 18.7018 50.8049 18.7137 50.8025 18.7249C50.7945 18.7631 50.785 18.8021 50.7746 18.8403L50.7691 18.861C50.7555 18.9072 50.7412 18.9534 50.7245 18.9988C50.7213 19.0083 50.7173 19.0179 50.7133 19.0274L50.7085 19.0394C50.6958 19.0712 50.6838 19.1031 50.6695 19.1349C50.6536 19.1716 50.6369 19.2082 50.6178 19.2448L39.738 40.705L39.6814 40.6278C39.679 40.6318 39.6766 40.6357 39.6735 40.6405C39.6392 40.6955 39.6018 40.7512 39.5612 40.8061C39.5532 40.8165 39.5453 40.8269 39.5365 40.8372L39.5261 40.8499C39.4991 40.8842 39.472 40.9176 39.4441 40.9495C39.4298 40.9662 39.4147 40.9829 39.3987 40.9996C39.3725 41.0275 39.3462 41.0546 39.3191 41.0817C39.3 41.1008 39.2857 41.1151 39.2705 41.1286C39.2419 41.1557 39.2116 41.1812 39.1814 41.2067L39.1678 41.2178C39.1575 41.2266 39.1463 41.2362 39.136 41.2449C39.0858 41.2855 39.038 41.3206 38.9918 41.3524C38.9449 41.3851 38.8931 41.4177 38.8334 41.452C38.823 41.4583 38.8119 41.4639 38.8015 41.4695L38.788 41.4766C38.7418 41.5021 38.694 41.5268 38.6454 41.5491L38.6311 41.5555C38.6168 41.5626 38.6016 41.569 38.5873 41.5762C38.5706 41.5833 38.5539 41.5905 38.5371 41.5977C38.5045 41.6112 38.475 41.6224 38.4448 41.6335C38.4265 41.6399 38.4074 41.647 38.389 41.6526C38.3596 41.6622 38.3301 41.6709 38.3006 41.6797L38.2911 41.6821C38.2736 41.6869 38.2561 41.6924 38.2385 41.6964C38.2083 41.7044 38.1772 41.7107 38.1462 41.7179L38.131 41.7211C38.1223 41.7267 38.1111 41.7291 38.1 41.7307ZM52.2462 19.8174V19.8182C52.2462 19.8174 52.2462 19.8174 52.2462 19.8174ZM52.2422 19.807C52.243 19.8094 52.2438 19.811 52.2446 19.8134C52.2438 19.811 52.243 19.8086 52.2422 19.807Z" fill="white"/>
<path d="M49.1048 16.8567C50.3462 16.8567 51.035 18.0304 50.4593 19.1652L39.6973 40.3944C39.335 41.1087 38.5634 41.5904 37.7814 41.5897C38.569 41.557 39.3334 41.0338 39.6575 40.2925L47.544 22.2588C48.0306 21.1463 47.3354 20.053 46.1402 20.053H44.4632L44.9728 16.8567H49.1048Z" fill="#7879F1"/>
<path d="M37.7831 41.7688C37.7823 41.7688 37.7815 41.7688 37.7807 41.7688L37.7735 41.4105C38.4926 41.3811 39.1997 40.8921 39.4927 40.2208L47.3792 22.1871C47.5894 21.7062 47.5656 21.2085 47.3123 20.8223C47.0671 20.448 46.6403 20.233 46.1394 20.233H44.253L44.8199 16.6783H49.104C49.7474 16.6783 50.2929 16.9658 50.601 17.4683C50.9164 17.9819 50.9227 18.6476 50.6186 19.2472L39.8566 40.4749C39.464 41.2489 38.6311 41.7688 37.7831 41.7688ZM44.6742 19.8739H46.141C46.7645 19.8739 47.3012 20.1478 47.6133 20.6256C47.9334 21.1153 47.9685 21.7364 47.7081 22.3305L41.7717 35.9049L50.2992 19.084C50.5509 18.5887 50.5493 18.0671 50.2961 17.6546C50.0548 17.2612 49.6208 17.0359 49.1048 17.0359H45.1265L44.6742 19.8739Z" fill="white"/>
<path d="M49.1964 23.4994C49.1948 23.4724 49.1932 23.4453 49.19 23.4182C49.1884 23.4047 49.1868 23.3911 49.1852 23.3776C49.1821 23.3537 49.1789 23.3298 49.1741 23.3059C49.1725 23.2988 49.1725 23.2916 49.1709 23.2844C49.1693 23.2773 49.1677 23.2709 49.1661 23.2637C49.1613 23.2422 49.1566 23.2199 49.151 23.1984C49.1478 23.1849 49.1438 23.1714 49.1406 23.1578C49.1343 23.1355 49.1271 23.1132 49.1191 23.0909C49.116 23.0822 49.1136 23.0726 49.1104 23.0639C49.1096 23.0623 49.1088 23.0607 49.108 23.0583C49.0889 23.0065 49.0674 22.9572 49.0427 22.9086C49.0403 22.9046 49.0395 22.8998 49.0371 22.8958C49.0355 22.8927 49.0331 22.8903 49.0316 22.8871C49.0093 22.8449 48.9854 22.8043 48.9599 22.7652C48.9575 22.7621 48.9559 22.7589 48.9543 22.7557C48.9424 22.7382 48.9304 22.7215 48.9185 22.7047L47.4206 20.6622C47.435 20.6821 47.4485 20.7028 47.4621 20.7235C47.4875 20.7634 47.5122 20.804 47.5337 20.8454C47.5377 20.8525 47.5409 20.8597 47.5449 20.8669C47.5695 20.9155 47.591 20.9656 47.6102 21.0166C47.6141 21.0277 47.6173 21.0381 47.6213 21.0492C47.6285 21.0715 47.6364 21.0938 47.6428 21.1161C47.6468 21.1297 47.65 21.1432 47.6532 21.1567C47.6587 21.1782 47.6635 21.1997 47.6683 21.222C47.6715 21.2364 47.6739 21.2499 47.6763 21.2642C47.6802 21.2881 47.6842 21.312 47.6874 21.3359C47.689 21.3494 47.6914 21.363 47.6922 21.3765C47.6946 21.4036 47.697 21.4307 47.6978 21.4577C47.6986 21.4689 47.6993 21.48 47.6993 21.4912C47.7001 21.5294 47.7001 21.5684 47.6985 21.6074C47.6985 21.6138 47.6978 21.6202 47.697 21.6273C47.6954 21.66 47.693 21.6926 47.689 21.7261C47.6874 21.7396 47.685 21.7532 47.6834 21.7667C47.6794 21.793 47.6755 21.82 47.6707 21.8463C47.6683 21.8615 47.6651 21.8766 47.6619 21.8917C47.6563 21.9172 47.65 21.9435 47.6436 21.9697C47.6396 21.9849 47.6356 22 47.6317 22.0151C47.6237 22.043 47.6149 22.0709 47.6054 22.0987C47.6006 22.1115 47.5966 22.125 47.5918 22.1378C47.5775 22.1784 47.5608 22.2198 47.5433 22.2604L39.6568 40.2941C39.6376 40.3379 39.6169 40.3801 39.5946 40.4223C39.5931 40.4255 39.5915 40.4279 39.5907 40.4311C39.5692 40.4717 39.5461 40.5107 39.5222 40.5497C39.4895 40.6023 39.4553 40.6525 39.4187 40.7018C39.4083 40.7162 39.3972 40.7289 39.3868 40.7424C39.3621 40.7735 39.3374 40.8045 39.3112 40.8348C39.2976 40.8507 39.2833 40.8659 39.269 40.881C39.2451 40.9065 39.2204 40.932 39.1949 40.9566C39.1798 40.971 39.1654 40.9861 39.1503 40.9996C39.1232 41.0243 39.0954 41.0482 39.0675 41.0721C39.0532 41.084 39.0396 41.096 39.0253 41.1079C38.9823 41.143 38.9377 41.1764 38.8915 41.2075C38.8437 41.2401 38.7944 41.2704 38.7442 41.2998C38.7307 41.3078 38.7163 41.315 38.702 41.3229C38.659 41.3468 38.6152 41.3691 38.5706 41.3898C38.5531 41.3986 38.5348 41.4065 38.5173 41.4145C38.5005 41.4217 38.4838 41.4288 38.4671 41.4352C38.44 41.4464 38.4129 41.4567 38.3859 41.4663C38.3683 41.4726 38.3516 41.4782 38.3341 41.4846C38.307 41.4933 38.28 41.5021 38.2529 41.5093C38.2338 41.5148 38.2155 41.5204 38.1963 41.5252C38.1685 41.5324 38.1398 41.5387 38.1111 41.5451C38.0928 41.5491 38.0745 41.5531 38.057 41.557C38.0259 41.5626 37.9941 41.5674 37.9622 41.5714C37.9471 41.5738 37.9312 41.5762 37.916 41.5777C37.8691 41.5833 37.8213 41.5873 37.7743 41.5889L10.9081 41.5905C10.3658 41.5905 9.90553 41.3588 9.62842 40.9813L11.1263 43.0238C11.4034 43.4013 11.8636 43.633 12.4059 43.633L39.2721 43.6314C39.3199 43.6298 39.3669 43.6258 39.4139 43.6203C39.4298 43.6187 39.4449 43.6155 39.4601 43.6139C39.4919 43.6099 39.523 43.6051 39.554 43.5995C39.5723 43.5964 39.5907 43.5916 39.609 43.5876C39.6376 43.5812 39.6655 43.5757 39.6934 43.5677C39.7125 43.5629 39.7316 43.5573 39.7507 43.5518C39.7674 43.547 39.7842 43.543 39.8009 43.5374C39.8112 43.5342 39.8216 43.5303 39.8319 43.5271C39.8495 43.5215 39.8662 43.5151 39.8837 43.5088C39.9108 43.4992 39.9378 43.4881 39.9649 43.4777C39.9816 43.4705 39.9984 43.4642 40.0151 43.457C40.0238 43.453 40.0326 43.4498 40.0406 43.4467C40.0501 43.4427 40.0589 43.4371 40.0684 43.4323C40.113 43.4116 40.1568 43.3893 40.1998 43.3654C40.2094 43.3607 40.2189 43.3567 40.2277 43.3511C40.2325 43.3479 40.2373 43.3447 40.242 43.3423C40.34 43.2858 40.4339 43.2213 40.5223 43.1504C40.5255 43.148 40.5295 43.1457 40.5327 43.1425C40.5438 43.1337 40.5534 43.1234 40.5645 43.1146C40.5924 43.0907 40.6203 43.0668 40.6473 43.0421C40.6529 43.0366 40.6593 43.0318 40.6657 43.0262C40.6752 43.0175 40.6832 43.0079 40.6927 42.9983C40.7182 42.9737 40.7429 42.9482 40.7668 42.9227C40.7748 42.9139 40.7827 42.9068 40.7907 42.898C40.797 42.8908 40.8026 42.8837 40.809 42.8765C40.8353 42.8462 40.86 42.816 40.8846 42.7841C40.8926 42.7738 40.9014 42.7642 40.9093 42.7539C40.9117 42.7507 40.9141 42.7467 40.9173 42.7427C40.9539 42.6934 40.989 42.6424 41.0208 42.5906C41.0224 42.5883 41.0248 42.5859 41.0264 42.5827C41.0487 42.546 41.0694 42.5094 41.0893 42.472C41.0909 42.4688 41.0925 42.4656 41.0941 42.4624C41.1116 42.4282 41.1291 42.394 41.145 42.3589C41.149 42.351 41.1522 42.3422 41.1562 42.3342L49.0427 24.3005C49.0602 24.2599 49.0761 24.2185 49.0913 24.1779C49.0961 24.1643 49.1 24.1516 49.1048 24.1389C49.1144 24.111 49.1231 24.0831 49.1311 24.0552C49.1351 24.0401 49.139 24.025 49.143 24.0099C49.1494 23.9836 49.1558 23.9581 49.1613 23.9318C49.1645 23.9167 49.1677 23.9016 49.1701 23.8864C49.1749 23.8602 49.1789 23.8331 49.1828 23.8068C49.1844 23.7933 49.1868 23.7797 49.1884 23.7662C49.1924 23.7327 49.1948 23.7001 49.1964 23.6675C49.1964 23.6611 49.1972 23.6547 49.198 23.6475C49.1996 23.6085 49.1996 23.5695 49.1988 23.5313C49.198 23.5217 49.1972 23.5106 49.1964 23.4994Z" fill="#7879F1"/>
<path d="M12.4059 43.813C11.8191 43.813 11.2999 43.5645 10.9821 43.1306L9.48431 41.0881L9.77337 40.8762L9.77496 40.8786C10.025 41.2178 10.4375 41.4121 10.9081 41.4121L37.7743 41.4106C37.8102 41.409 37.8532 41.405 37.8962 41.4002C37.9033 41.3994 37.9097 41.3986 37.9169 41.397L37.9384 41.3938C37.967 41.3898 37.9957 41.3859 38.0244 41.3803C38.0355 41.3779 38.0459 41.3755 38.0562 41.3739L38.0737 41.3699C38.0992 41.3644 38.1255 41.3588 38.151 41.3524C38.1653 41.3484 38.1796 41.3445 38.1932 41.3405L38.2027 41.3373C38.2274 41.3301 38.2529 41.323 38.2776 41.3142C38.2935 41.3086 38.3094 41.3031 38.3254 41.2975C38.3501 41.2887 38.3755 41.2792 38.4002 41.2688C38.4177 41.2616 38.4321 41.2561 38.4464 41.2497C38.4576 41.2449 38.4687 41.2393 38.4799 41.2338L38.4958 41.2266C38.5372 41.2075 38.577 41.1868 38.6168 41.1645L38.6558 41.143C38.7076 41.1127 38.7514 41.0857 38.7912 41.0578C38.8302 41.0307 38.8708 41.0013 38.9138 40.9662C38.9218 40.9598 38.929 40.9535 38.9361 40.9471L38.9529 40.9328C38.9783 40.9113 39.0046 40.889 39.0293 40.8659C39.0412 40.8547 39.0532 40.8428 39.0651 40.8308C39.0938 40.803 39.1161 40.7799 39.1384 40.756C39.1511 40.7425 39.1639 40.7281 39.1766 40.7138C39.2013 40.6859 39.2244 40.6581 39.2467 40.6286L39.2594 40.6127C39.265 40.6055 39.2706 40.5983 39.2761 40.5912C39.3112 40.545 39.343 40.498 39.3709 40.4518C39.3932 40.416 39.4139 40.3801 39.4338 40.3435L39.437 40.3363C39.4577 40.2973 39.4768 40.2583 39.4935 40.2185L47.3801 22.1848C47.396 22.1473 47.4111 22.1107 47.4239 22.0733L47.4358 22.0375C47.4446 22.0128 47.4525 21.9873 47.4597 21.9618C47.4637 21.9491 47.4669 21.9363 47.47 21.9236C47.4772 21.8973 47.4828 21.8742 47.4876 21.8511C47.4907 21.8376 47.4931 21.8241 47.4955 21.8105C47.5003 21.7866 47.5035 21.7627 47.5067 21.7388L47.5114 21.7022C47.5146 21.6728 47.517 21.6433 47.5186 21.6138L47.5194 21.5987C47.521 21.5613 47.521 21.527 47.5202 21.4928L47.5186 21.4633C47.517 21.4394 47.5162 21.4156 47.513 21.3917C47.5122 21.3829 47.5106 21.3741 47.5098 21.3654L47.5083 21.3558C47.5059 21.3343 47.5027 21.3136 47.4987 21.2929C47.4963 21.2802 47.4939 21.2682 47.4915 21.2555C47.4876 21.2364 47.4828 21.2173 47.478 21.1982L47.4684 21.1623C47.4629 21.1424 47.4565 21.1233 47.4493 21.1034L47.4398 21.0747C47.4238 21.0317 47.4055 20.9887 47.3824 20.9433L47.3729 20.9242C47.3538 20.8876 47.3331 20.8518 47.31 20.8175C47.298 20.7992 47.2869 20.7817 47.2741 20.765L47.2733 20.7642L47.5624 20.5524C47.5624 20.5532 47.5632 20.5532 47.5632 20.554L49.0602 22.5949C49.0738 22.614 49.0873 22.6331 49.1009 22.6522L49.1096 22.6673C49.1367 22.7095 49.1622 22.7525 49.1853 22.7963C49.1876 22.8011 49.1908 22.8051 49.1932 22.8099L49.202 22.829C49.2291 22.8831 49.2514 22.9349 49.2705 22.9866L49.2744 22.9954C49.2784 23.0073 49.2816 23.0153 49.284 23.0233C49.2943 23.0543 49.3023 23.0798 49.3095 23.1053C49.3135 23.1196 49.3174 23.134 49.3206 23.1483C49.327 23.1746 49.3334 23.1993 49.3381 23.2231C49.3405 23.2327 49.3421 23.2391 49.3437 23.2462C49.3453 23.2534 49.3461 23.2606 49.3469 23.2677C49.3525 23.2972 49.3565 23.3243 49.3596 23.3513C49.362 23.3705 49.3636 23.384 49.3652 23.3975C49.3684 23.427 49.37 23.4573 49.3716 23.4875L49.3724 23.4979C49.3732 23.5066 49.3732 23.5154 49.374 23.5249C49.3756 23.5671 49.3748 23.6101 49.3732 23.6539L49.3716 23.6723C49.3692 23.7121 49.3668 23.7487 49.362 23.7845C49.3604 23.7949 49.3596 23.8052 49.3581 23.8156L49.3565 23.8283C49.3525 23.8578 49.3477 23.8873 49.3421 23.9167C49.3389 23.9334 49.3358 23.9494 49.3318 23.9661C49.3254 23.9948 49.319 24.0226 49.3119 24.0513C49.3071 24.0712 49.3031 24.0863 49.2983 24.1015C49.2896 24.1317 49.28 24.162 49.2697 24.193L49.2665 24.2042C49.2633 24.2153 49.2593 24.2257 49.2553 24.2368C49.2394 24.2814 49.2219 24.3252 49.2028 24.3698L41.3035 42.4314C41.2868 42.4688 41.2677 42.5063 41.2486 42.5429L41.2438 42.5532C41.2223 42.5938 41.1992 42.6345 41.1753 42.6735L41.1674 42.6854C41.1331 42.7404 41.0965 42.7945 41.0567 42.8471C41.0559 42.8487 41.0527 42.8534 41.0487 42.859C41.0423 42.8678 41.0352 42.8757 41.0288 42.8837L41.0224 42.8917C40.9954 42.9259 40.9683 42.9593 40.9404 42.9912C40.9324 43.0015 40.9269 43.0079 40.9213 43.0143C40.9149 43.0215 40.9078 43.0286 40.9014 43.035L40.895 43.0414C40.8695 43.0692 40.8425 43.0963 40.8154 43.1234L40.8082 43.1306C40.8011 43.1385 40.7939 43.1457 40.7859 43.1528C40.7803 43.1584 40.7748 43.1632 40.7692 43.168C40.7374 43.1966 40.7079 43.2229 40.6776 43.2484L40.6681 43.2564C40.6601 43.2635 40.6514 43.2715 40.6426 43.2779L40.6299 43.2882C40.5375 43.3623 40.4356 43.4323 40.3296 43.4937C40.3257 43.4968 40.3201 43.5 40.3137 43.5032C40.3058 43.508 40.297 43.512 40.2882 43.516C40.2373 43.5438 40.1895 43.5677 40.1417 43.5908C40.129 43.598 40.1202 43.602 40.1115 43.6059C40.1051 43.6091 40.0979 43.6115 40.0908 43.6147C40.0653 43.6258 40.0478 43.633 40.0294 43.6402C40.0008 43.6521 39.9713 43.6633 39.9419 43.6736C39.9235 43.68 39.9044 43.6872 39.8861 43.6935L39.8766 43.6967C39.8686 43.6999 39.8606 43.7023 39.8527 43.7047C39.8407 43.7087 39.828 43.7118 39.8152 43.7158L39.789 43.723C39.7714 43.7278 39.7539 43.7333 39.7364 43.7373C39.7061 43.7453 39.6751 43.7517 39.6448 43.7588L39.6297 43.762C39.6154 43.7652 39.6002 43.7684 39.5851 43.7716C39.5509 43.7779 39.5166 43.7827 39.4824 43.7875L39.4673 43.7899C39.4553 43.7915 39.4434 43.7939 39.4322 43.7947C39.3781 43.801 39.3271 43.805 39.2769 43.8066L12.4059 43.813ZM10.3754 41.6972L11.2712 42.9179C11.5212 43.2588 11.9345 43.4538 12.4059 43.4538L39.2722 43.4523C39.308 43.4507 39.351 43.4467 39.394 43.4419C39.4012 43.4411 39.4083 43.4403 39.4147 43.4387L39.4362 43.4355C39.4649 43.4316 39.4935 43.4276 39.5222 43.422C39.5333 43.4196 39.5437 43.4172 39.5549 43.4148L39.5724 43.4108C39.5978 43.4053 39.6241 43.3997 39.6496 43.3933C39.6639 43.3893 39.6783 43.3854 39.6918 43.3814L39.7245 43.3718C39.7324 43.3694 39.7396 43.3678 39.7476 43.3655L39.7762 43.3551C39.7913 43.3503 39.8073 43.344 39.8232 43.3384C39.8479 43.3296 39.8734 43.3201 39.8981 43.3097C39.914 43.3033 39.9291 43.297 39.9442 43.2906L39.9721 43.2787C39.9793 43.2747 39.9864 43.2715 39.9936 43.2675C40.035 43.2484 40.0748 43.2277 40.1146 43.2054C40.1218 43.2014 40.129 43.1982 40.1361 43.1943C40.1433 43.1903 40.1481 43.1871 40.1537 43.1839C40.2444 43.1313 40.3312 43.0716 40.4117 43.0071L40.4316 42.9912C40.4379 42.9856 40.4443 42.9801 40.4507 42.9745C40.477 42.953 40.5024 42.9307 40.5271 42.9076C40.5319 42.9028 40.5367 42.8988 40.5423 42.8948L40.5518 42.8853C40.5574 42.8797 40.563 42.8741 40.5685 42.8686C40.5924 42.8455 40.6147 42.8224 40.637 42.7985C40.6426 42.7929 40.6474 42.7873 40.6529 42.7818L40.6593 42.7754C40.6665 42.7666 40.6705 42.7611 40.6752 42.7555C40.6991 42.7276 40.7222 42.6998 40.7453 42.6711C40.7501 42.6647 40.7557 42.6583 40.7612 42.652L40.7676 42.644C40.7676 42.6432 40.7708 42.6384 40.7748 42.6337C40.809 42.5883 40.8409 42.5413 40.8695 42.4943L40.8767 42.484C40.8966 42.4521 40.9149 42.4195 40.9324 42.386L40.9364 42.3773C40.9523 42.3462 40.9683 42.3151 40.9826 42.2833L40.9922 42.2618L48.8795 24.2273C48.8954 24.1898 48.9105 24.1524 48.9233 24.1158L48.9352 24.0808C48.944 24.0553 48.9519 24.0298 48.9591 24.0051C48.9623 23.9932 48.9655 23.9812 48.9687 23.9685C48.9758 23.9406 48.9814 23.9175 48.9862 23.8936C48.9894 23.8801 48.9918 23.8666 48.9941 23.853C48.9989 23.8291 49.0021 23.8052 49.0053 23.7813L49.0101 23.7447C49.0133 23.7153 49.0156 23.6866 49.0172 23.6571L49.018 23.6428C49.0196 23.6054 49.0196 23.5703 49.0188 23.5361L49.0172 23.5066C49.0156 23.4827 49.0141 23.4589 49.0117 23.435C49.0109 23.4246 49.0093 23.4151 49.0077 23.4055C49.0037 23.3776 49.0005 23.3569 48.9973 23.3354C48.9965 23.3306 48.9957 23.3243 48.9949 23.3179L48.9902 23.2972C48.9862 23.2789 48.9814 23.2598 48.9766 23.2407C48.9726 23.2263 48.9703 23.216 48.9671 23.2048C48.9615 23.1849 48.9551 23.165 48.948 23.1459L48.9424 23.1276C48.9408 23.1236 48.9392 23.1196 48.9376 23.1156C48.9225 23.0742 48.9042 23.032 48.8811 22.9866L48.8715 22.9675C48.8524 22.9317 48.8317 22.8959 48.8086 22.8608L48.8006 22.8481C48.7919 22.8346 48.7823 22.821 48.772 22.8075L47.8777 21.5884C47.8777 21.5963 47.8769 21.6043 47.8769 21.6114L47.8754 21.6298C47.873 21.6696 47.8706 21.7062 47.8658 21.7428C47.8642 21.754 47.8626 21.7659 47.861 21.7779L47.8594 21.7882C47.8554 21.8169 47.8507 21.8463 47.8459 21.8758C47.8427 21.8925 47.8395 21.9093 47.8355 21.926C47.8292 21.9546 47.8228 21.9833 47.8156 22.012C47.8109 22.0303 47.8069 22.0462 47.8021 22.0614C47.7933 22.0916 47.7838 22.1219 47.7734 22.1521L47.7694 22.1649C47.7663 22.1744 47.7631 22.1848 47.7591 22.1943C47.7432 22.2389 47.7256 22.2835 47.7057 22.3281L39.8192 40.3618C39.7993 40.4064 39.7778 40.4526 39.7515 40.5012L39.7476 40.5099C39.7237 40.5545 39.699 40.5975 39.6727 40.6397C39.6385 40.6947 39.601 40.7504 39.5604 40.8054C39.5525 40.8157 39.5445 40.8261 39.5357 40.8364L39.5254 40.8492C39.4983 40.8834 39.4712 40.9168 39.4434 40.9487C39.429 40.9654 39.4139 40.9821 39.398 40.9989C39.3717 41.0267 39.3454 41.0538 39.3183 41.0809C39.2992 41.1 39.2849 41.1143 39.2698 41.1279C39.2411 41.1549 39.2108 41.1804 39.1806 41.2059L39.1671 41.2171C39.1567 41.2258 39.1456 41.2354 39.1352 41.2441C39.085 41.2847 39.0373 41.3198 38.9911 41.3516C38.9441 41.3843 38.8923 41.4169 38.8326 41.4512C38.8223 41.4575 38.8111 41.4631 38.8008 41.4687L38.7872 41.4758C38.741 41.5013 38.6933 41.526 38.6447 41.5483L38.6303 41.5547C38.616 41.5618 38.6009 41.5682 38.5866 41.5754C38.5698 41.5826 38.5531 41.5897 38.5364 41.5969C38.5037 41.6104 38.4743 41.6216 38.444 41.6327C38.4257 41.6391 38.4066 41.6463 38.3883 41.6518C38.3588 41.6614 38.3294 41.6701 38.2999 41.6789L38.2903 41.6813C38.2728 41.6861 38.2553 41.6916 38.2378 41.6956C38.2075 41.7036 38.1765 41.71 38.1454 41.7171L38.1303 41.7203C38.1159 41.7235 38.1008 41.7267 38.0865 41.7299C38.0522 41.7362 38.018 41.741 37.9838 41.7458L37.9686 41.7482C37.9567 41.7498 37.9455 41.7514 37.9336 41.753C37.8794 41.7593 37.8285 41.7633 37.7783 41.7649L10.9049 41.7665C10.7218 41.7705 10.5434 41.745 10.3754 41.6972Z" fill="white"/>
<path d="M47.7591 10.8295L46.2612 8.78705L44.9744 16.8559L44.464 20.0522H46.141C46.1904 20.0522 46.2397 20.0538 46.2867 20.0578L46.4723 18.8976V18.8968L47.7591 10.8295Z" fill="#A5A6F6"/>
<path d="M46.438 20.2513L46.2724 20.2378C46.2302 20.2346 46.1856 20.2322 46.141 20.2322H44.2538L46.1514 8.33478L47.9478 10.7834L46.6618 18.8491L46.6498 18.9271L46.438 20.2513ZM44.6742 19.8739H46.1354L46.2955 18.8706L47.5704 10.8758L46.3703 9.23937L45.1624 16.8121L45.1512 16.8854L44.6742 19.8739Z" fill="white"/>
<path d="M47.5449 22.258L39.6583 40.2918C39.3343 41.0331 38.5698 41.5571 37.7743 41.5889L10.9081 41.5905C10.0855 41.5905 9.45164 41.057 9.36007 40.291L6.84855 19.0617C6.71716 17.9493 7.76031 16.8568 8.95475 16.8568H18.7181C19.5407 16.8568 20.1762 17.3887 20.2669 18.1547L20.3378 18.7543C20.4286 19.5212 21.0624 20.0539 21.8858 20.0539H46.1418C46.1912 20.0539 46.2405 20.0555 46.2875 20.0595C47.392 20.1439 48.0107 21.1918 47.5449 22.258Z" fill="#A5A6F6"/>
<path d="M10.9073 41.7704C9.99313 41.7704 9.28363 41.1708 9.1817 40.3132L6.67019 19.0824C6.60489 18.5289 6.80317 17.9453 7.21565 17.4818C7.67033 16.9706 8.30419 16.6768 8.95476 16.6768H18.7181C19.6331 16.6768 20.3434 17.2756 20.4445 18.1332L20.5154 18.7328C20.595 19.4049 21.158 19.8739 21.885 19.8739H46.141C46.1959 19.8739 46.2493 19.8763 46.3019 19.8803C46.8784 19.9249 47.3689 20.2155 47.6468 20.6774C47.9359 21.1575 47.9581 21.7603 47.7097 22.3297L39.8232 40.3634C39.4712 41.1684 38.651 41.733 37.7823 41.7681L10.9073 41.7704ZM8.95476 17.0359C8.41407 17.0359 7.86463 17.2915 7.48321 17.7199C7.13921 18.1069 6.97278 18.5879 7.02613 19.0402L9.53765 40.271C9.61728 40.9431 10.1803 41.4121 10.9073 41.4121L37.7735 41.4105C38.4902 41.3819 39.1997 40.8921 39.4935 40.2209L47.38 22.1871C47.5815 21.7253 47.5664 21.2427 47.3386 20.8629C47.1212 20.5014 46.7334 20.2736 46.2732 20.2386C46.2302 20.2354 46.1856 20.233 46.141 20.233H21.885C20.9709 20.233 20.2614 19.6334 20.1594 18.7758L20.0886 18.1762C20.0089 17.5049 19.4452 17.0359 18.7181 17.0359H8.95476Z" fill="white"/>
<path d="M44.464 20.2322H21.885C20.9708 20.2322 20.2613 19.6334 20.1586 18.7758L20.0886 18.1762C20.0089 17.5049 19.4451 17.0359 18.7181 17.0359H12.2944C12.2418 17.0359 12.1925 17.0128 12.1582 16.973C12.124 16.9332 12.1097 16.8806 12.1176 16.8289L12.4752 14.5849C12.4887 14.4981 12.5643 14.4336 12.6519 14.4336H17.1765L18.5581 5.7699H14.0908C14.0383 5.7699 13.9889 5.74681 13.9547 5.707C13.9204 5.66718 13.9061 5.61463 13.9141 5.56287L14.747 0.338369C14.7605 0.251572 14.8362 0.187073 14.9238 0.187073H38.874C38.9257 0.187073 38.9743 0.209368 39.0086 0.248387L39.1344 0.391721C39.1694 0.431536 39.1853 0.485684 39.1766 0.53824L37.8906 8.60791H46.2604C46.313 8.60791 46.3624 8.631 46.3966 8.67081C46.4308 8.71063 46.4452 8.76318 46.4372 8.81494L44.6408 20.0809C44.6272 20.1685 44.5524 20.2322 44.464 20.2322ZM12.5046 16.6776H18.7189C19.6331 16.6776 20.3434 17.2764 20.4453 18.134L20.5154 18.7336C20.595 19.4049 21.1588 19.8739 21.8858 19.8739H44.3111L46.051 8.96624H37.6811C37.6286 8.96624 37.5792 8.94315 37.545 8.90333C37.5107 8.86352 37.4964 8.81096 37.5044 8.7592L38.8103 0.564516L38.7936 0.545406H15.0775L14.3011 5.41157H18.7683C18.8208 5.41157 18.8702 5.43466 18.9045 5.47448C18.9387 5.51429 18.953 5.56685 18.9451 5.61861L17.5062 14.6406C17.4926 14.7274 17.417 14.7919 17.3294 14.7919H12.8048L12.5046 16.6776ZM35.8496 17.97H21.1213C20.947 17.97 20.7861 17.8991 20.6802 17.7749C20.5759 17.6522 20.5329 17.4922 20.5592 17.325C20.6117 16.9945 20.9199 16.7357 21.2607 16.7357H35.989C36.1626 16.7357 36.3234 16.8066 36.4286 16.93C36.5337 17.0526 36.5767 17.2135 36.5496 17.3815C36.497 17.7112 36.1897 17.97 35.8496 17.97ZM21.2607 17.094C21.0975 17.094 20.9382 17.2254 20.9135 17.3815C20.9032 17.4444 20.9175 17.5001 20.9533 17.5423C20.9916 17.5869 21.0513 17.6116 21.1213 17.6116H35.8496C36.0129 17.6116 36.1714 17.4802 36.196 17.325C36.2064 17.2621 36.1921 17.2047 36.1562 17.1625C36.118 17.1179 36.0591 17.094 35.989 17.094H21.2607ZM36.3179 15.0348H21.5888C21.4144 15.0348 21.2543 14.9639 21.1484 14.8397C21.0433 14.7171 21.0003 14.557 21.0274 14.389C21.0799 14.0594 21.3881 13.8006 21.7289 13.8006H36.4572C36.6316 13.8006 36.7917 13.8714 36.8976 13.9948C37.0019 14.1175 37.0449 14.2775 37.0186 14.4456C36.9653 14.776 36.6579 15.0348 36.3179 15.0348ZM21.7289 14.1589C21.5657 14.1589 21.4064 14.2903 21.3817 14.4456C21.3714 14.5093 21.3857 14.565 21.4216 14.6072C21.4598 14.6518 21.5195 14.6765 21.5896 14.6765H36.3179C36.4811 14.6765 36.6396 14.5451 36.6643 14.389C36.6746 14.3253 36.6611 14.2696 36.6244 14.2274C36.5862 14.1828 36.5273 14.1589 36.4572 14.1589H21.7289ZM36.7861 12.0981H22.0578C21.8834 12.0981 21.7226 12.0272 21.6166 11.903C21.5123 11.7803 21.4693 11.6203 21.4956 11.4531C21.5482 11.1226 21.8563 10.8638 22.1971 10.8638H36.9254C37.099 10.8638 37.2599 10.9347 37.365 11.0581C37.4701 11.1807 37.5131 11.3416 37.486 11.5096C37.4335 11.8401 37.1261 12.0981 36.7861 12.0981ZM22.1971 11.2221C22.0339 11.2221 21.8746 11.3535 21.85 11.5096C21.8396 11.5725 21.8539 11.6283 21.8898 11.6705C21.928 11.7151 21.9877 11.7397 22.0578 11.7397H36.7861C36.9493 11.7397 37.1078 11.6083 37.1325 11.4531C37.1428 11.3902 37.1285 11.3328 37.0927 11.2906C37.0544 11.246 36.9955 11.2221 36.9254 11.2221H22.1971Z" fill="white"/>
<path d="M9.29082 5.4458L7.80573 14.7577H17.4536L18.9387 5.4458H9.29082ZM17.5492 6.61158L16.436 13.5911H9.19287L10.3061 6.61158H17.5492Z" fill="#7879F1"/>
<path d="M39.0014 0.510376L46.262 8.78708H37.6812L39.0014 0.510376Z" fill="#7879F1"/>
<path d="M46.262 8.96622H37.6811C37.6286 8.96622 37.5792 8.94313 37.545 8.90332C37.5107 8.8635 37.4964 8.81095 37.5043 8.75919L38.8246 0.482484C38.8357 0.414002 38.8851 0.357465 38.952 0.338354C39.0189 0.319243 39.0906 0.339946 39.1368 0.392502L46.3974 8.6692C46.4436 8.72176 46.4547 8.79741 46.426 8.86111C46.3958 8.92561 46.3321 8.96622 46.262 8.96622ZM37.8913 8.60789H45.8662L39.1176 0.915669L37.8913 8.60789Z" fill="white"/>
<path d="M37.3396 11.0804C37.2392 10.9626 37.0919 10.8981 36.9263 10.8981H22.1972C21.8731 10.8981 21.5793 11.1441 21.5299 11.4587C21.5044 11.6163 21.545 11.766 21.643 11.8815C21.7425 11.9978 21.8938 12.0646 22.0578 12.0646H36.7861C37.1102 12.0646 37.4025 11.8186 37.4526 11.5049C37.4781 11.3464 37.4375 11.1959 37.3396 11.0804Z" fill="#A5A6F6"/>
<path d="M36.4572 13.8348H21.7289C21.4048 13.8348 21.1118 14.0809 21.0616 14.3946C21.0361 14.5523 21.0768 14.7028 21.1747 14.8175C21.2742 14.9337 21.4247 15.0006 21.5896 15.0006H36.3179C36.642 15.0006 36.9342 14.7546 36.9844 14.44C37.0099 14.2824 36.9692 14.1319 36.8713 14.0172C36.7726 13.9009 36.6213 13.8348 36.4572 13.8348Z" fill="#A5A6F6"/>
<path d="M35.989 16.77H21.2607C20.9366 16.77 20.6428 17.016 20.5934 17.3305C20.5679 17.4882 20.6086 17.6379 20.7065 17.7534C20.806 17.8696 20.9573 17.9365 21.1214 17.9365H35.8497C36.1738 17.9365 36.466 17.6905 36.5162 17.3767C36.5417 17.2191 36.501 17.0686 36.4031 16.9531C36.302 16.8345 36.1554 16.77 35.989 16.77Z" fill="#A5A6F6"/>
</svg>
