<svg width="40" height="40" viewBox="0 0 40 40" fill="none" xmlns="http://www.w3.org/2000/svg">
<path d="M8.63749 14.6637C9.43929 14.931 10.0685 15.5602 10.3357 16.362C10.6077 17.178 11.762 17.178 12.034 16.362C12.3012 15.5602 12.9304 14.931 13.7322 14.6637C14.5482 14.3917 14.5482 13.2375 13.7322 12.9655C12.9304 12.6982 12.3012 12.069 12.034 11.2672C11.762 10.4512 10.6077 10.4512 10.3357 11.2672C10.0685 12.069 9.43929 12.6982 8.63749 12.9655C7.82147 13.2375 7.82147 14.3917 8.63749 14.6637Z" fill="#B0B0B0"/>
<path fill-rule="evenodd" clip-rule="evenodd" d="M8.33268 3.33325C4.65078 3.33325 1.66602 6.31802 1.66602 9.99992V29.9999C1.66602 33.6818 4.65078 36.6666 8.33268 36.6666H31.666C35.3479 36.6666 38.3327 33.6818 38.3327 29.9999V9.99992C38.3327 6.31802 35.3479 3.33325 31.666 3.33325H8.33268ZM34.9993 22.9968V9.99992C34.9993 8.15897 33.507 6.66659 31.666 6.66659H8.33268C6.49173 6.66659 4.99935 8.15897 4.99935 9.99992V29.9999C4.99935 31.8409 6.49173 33.3333 8.33268 33.3333H8.57046C8.41613 32.8605 8.33268 32.3557 8.33268 31.8314C8.33268 30.84 8.63746 29.8725 9.20573 29.06L13.8919 22.3604C15.3688 20.2489 18.2087 19.6056 20.4514 20.8746L20.9776 21.1723L21.7654 20.0469C23.3236 17.8209 26.3742 17.2468 28.635 18.754L34.9993 22.9968ZM19.0572 23.9157L18.8098 23.7757C18.0623 23.3527 17.1157 23.5671 16.6233 24.271L11.9372 30.9706C11.7607 31.223 11.666 31.5235 11.666 31.8314C11.666 32.6609 12.3384 33.3333 13.1679 33.3333H15.0196C14.5091 31.9033 14.6337 30.235 15.6387 28.7993L19.0572 23.9157ZM19.7349 33.3333H31.666C33.507 33.3333 34.9993 31.8409 34.9993 29.9999V27.895C34.9993 27.3377 34.7208 26.8173 34.2572 26.5082L26.786 21.5275C26.0324 21.0251 25.0155 21.2164 24.4961 21.9584L18.3695 30.7108C17.5962 31.8154 18.3865 33.3333 19.7349 33.3333Z" fill="#B0B0B0"/>
</svg>
