<svg width="48" height="48" viewBox="0 0 48 48" fill="none" xmlns="http://www.w3.org/2000/svg">
<rect width="48" height="48" rx="10" fill="#FFF1F1"/>
<path d="M17.0911 18.4167C16.5409 18.3685 16.0558 18.7755 16.0077 19.3257C15.9596 19.8759 16.3666 20.3609 16.9168 20.4091L18.9091 20.5834C19.4593 20.6315 19.9444 20.2245 19.9925 19.6743C20.0406 19.1241 19.6336 18.6391 19.0835 18.591L17.0911 18.4167Z" fill="#E7211B"/>
<path d="M28.0077 20.3257C28.0558 19.7755 28.5409 19.3685 29.0911 19.4167L31.0835 19.591C31.6336 19.6391 32.0406 20.1241 31.9925 20.6743C31.9444 21.2245 31.4593 21.6315 30.9091 21.5834L28.9168 21.4091C28.3666 21.3609 27.9596 20.8759 28.0077 20.3257Z" fill="#E7211B"/>
<path d="M17.0911 27.0038C16.5409 26.9557 16.0558 27.3627 16.0077 27.9129C15.9596 28.463 16.3666 28.9481 16.9168 28.9962L18.9091 29.1705C19.4593 29.2187 19.9444 28.8117 19.9925 28.2615C20.0406 27.7113 19.6336 27.2263 19.0835 27.1781L17.0911 27.0038Z" fill="#E7211B"/>
<path d="M28.0077 29.3257C28.0558 28.7755 28.5409 28.3685 29.0911 28.4167L31.0835 28.591C31.6336 28.6391 32.0406 29.1241 31.9925 29.6743C31.9444 30.2245 31.4593 30.6315 30.9091 30.5834L28.9168 30.4091C28.3666 30.3609 27.9596 29.8759 28.0077 29.3257Z" fill="#E7211B"/>
<path fill-rule="evenodd" clip-rule="evenodd" d="M24 21C25.6569 21 27 22.3432 27 24C27 25.6569 25.6569 27 24 27C22.3431 27 21 25.6569 21 24C21 22.3432 22.3431 21 24 21ZM25 24C25 23.4477 24.5523 23 24 23C23.4477 23 23 23.4477 23 24C23 24.5523 23.4477 25 24 25C24.5523 25 25 24.5523 25 24Z" fill="#E7211B"/>
<path fill-rule="evenodd" clip-rule="evenodd" d="M17.2443 15.2416C14.9311 15.0431 13 16.8759 13 19.1686V27.1597C13 29.2848 14.655 31.0305 16.7482 31.2067C17.6063 31.2789 18.6588 31.3733 19.9024 31.4952C20.1254 31.5171 20.621 31.6182 21.3377 31.784C21.8089 31.8929 22.3392 32.0209 22.8964 32.1554C23.1591 32.2189 23.4286 32.2839 23.6998 32.3489C24.5391 32.5499 25.3972 32.7507 26.1357 32.9018C26.8428 33.0465 27.5356 33.1667 27.9958 33.1687C29.1394 33.1735 30.2579 33.1519 31.2151 33.1227C33.3562 33.0574 35 31.2885 35 29.1812V21.1928C35 18.8804 33.0564 17.0729 30.7836 17.1343C29.931 17.1574 28.9751 17.1728 28.0042 17.1687C27.7734 17.1677 27.2712 17.0927 26.5366 16.9424C25.8335 16.7985 25.0034 16.6046 24.1657 16.4039C23.9033 16.341 23.6395 16.2774 23.3793 16.2145L23.3782 16.2143C22.8155 16.0785 22.269 15.9465 21.7883 15.8354C21.1081 15.6781 20.4759 15.5419 20.0976 15.5048C18.9986 15.3971 18.0468 15.3105 17.2443 15.2416ZM15 19.1686C15 18.0189 15.9566 17.1384 17.0733 17.2343C17.8678 17.3025 18.8116 17.3883 19.9024 17.4952C20.1254 17.5171 20.621 17.6182 21.3377 17.784C21.8089 17.8929 22.3394 18.021 22.8967 18.1555C23.1596 18.219 23.4284 18.2839 23.6998 18.3489C24.5391 18.5499 25.3972 18.7507 26.1357 18.9018C26.8428 19.0465 27.5356 19.1667 27.9958 19.1687C28.9924 19.1729 29.9697 19.157 30.8377 19.1336C32.0241 19.1015 33 20.0447 33 21.1928V29.1812C33 30.2426 32.1803 31.0924 31.1541 31.1237C30.2131 31.1524 29.1187 31.1734 28.0042 31.1687C27.7734 31.1677 27.2712 31.0927 26.5366 30.9424C25.8335 30.7985 25.0034 30.6046 24.1657 30.4039C23.903 30.341 23.639 30.2772 23.3784 30.2143C22.8156 30.0785 22.269 29.9465 21.7883 29.8354C21.1081 29.6781 20.4759 29.5419 20.0976 29.5048C18.8447 29.382 17.783 29.2867 16.9159 29.2137C15.8341 29.1227 15 28.2209 15 27.1597V19.1686Z" fill="#E7211B"/>
</svg>
