<svg width="20" height="21" viewBox="0 0 20 21" fill="none" xmlns="http://www.w3.org/2000/svg">
<path d="M10.8333 2.6111C10.8333 2.15087 10.4602 1.77777 10 1.77777C9.53976 1.77777 9.16667 2.15087 9.16667 2.6111V3.8611C9.16667 3.88422 9.16761 3.90711 9.16945 3.92974C6.80332 4.32518 5 6.38172 5 8.86019V12.1944C5 12.6113 4.65824 13.3341 4.28424 14.0003C3.75797 14.9378 3.85435 16.0681 4.85909 16.4507C5.8696 16.8354 7.48605 17.1944 10 17.1944C12.514 17.1944 14.1304 16.8354 15.1409 16.4507C16.1456 16.0681 16.242 14.9378 15.7158 14.0003C15.3418 13.3341 15 12.6113 15 12.1944V8.86059C15 6.38212 13.1967 4.32525 10.8305 3.92975C10.8324 3.90712 10.8333 3.88422 10.8333 3.8611V2.6111Z" fill="#888888"/>
<path d="M7.43342 17.8816C7.46453 17.9087 7.50209 17.9404 7.54584 17.9754C7.67108 18.0756 7.85001 18.2055 8.07615 18.3347C8.52496 18.5911 9.18853 18.8611 10 18.8611C10.8115 18.8611 11.4751 18.5911 11.9239 18.3347C12.15 18.2055 12.3289 18.0756 12.4542 17.9754C12.4979 17.9404 12.5355 17.9087 12.5666 17.8816C11.838 17.9723 10.9884 18.0278 10 18.0278C9.01167 18.0278 8.16204 17.9723 7.43342 17.8816Z" fill="#888888"/>
</svg>
