<svg width="14" height="18" viewBox="0 0 14 18" fill="none" xmlns="http://www.w3.org/2000/svg">
<path d="M7.83325 1.61104C7.83325 1.15081 7.46016 0.77771 6.99992 0.77771C6.53968 0.77771 6.16659 1.15081 6.16659 1.61104V2.86104C6.16659 2.88415 6.16753 2.90705 6.16937 2.92968C3.80324 3.32511 1.99992 5.38166 1.99992 7.86013V11.1944C1.99992 11.6112 1.65816 12.334 1.28416 13.0003C0.757894 13.9378 0.854275 15.068 1.85901 15.4506C2.86953 15.8354 4.48597 16.1944 6.99992 16.1944C9.51387 16.1944 11.1303 15.8354 12.1408 15.4506C13.1456 15.068 13.242 13.9378 12.7157 13.0003C12.3417 12.334 11.9999 11.6112 11.9999 11.1944V7.86053C11.9999 5.38206 10.1966 3.32519 7.83047 2.92969C7.83231 2.90705 7.83325 2.88416 7.83325 2.86104V1.61104Z" fill="#888888"/>
<path d="M4.43334 16.8815C4.46445 16.9087 4.50201 16.9403 4.54576 16.9753C4.671 17.0755 4.84994 17.2054 5.07607 17.3346C5.52488 17.5911 6.18845 17.8611 6.99994 17.8611C7.81142 17.8611 8.475 17.5911 8.9238 17.3346C9.14994 17.2054 9.32887 17.0755 9.45411 16.9753C9.49786 16.9403 9.53542 16.9087 9.56653 16.8815C8.83791 16.9723 7.98828 17.0277 6.99994 17.0277C6.01159 17.0277 5.16196 16.9723 4.43334 16.8815Z" fill="#888888"/>
</svg>
