<svg width="72" height="40" viewBox="0 0 72 40" fill="none" xmlns="http://www.w3.org/2000/svg">
<rect width="72" height="40" rx="20" fill="#7B37F0"/>
<path d="M42.5592 13.2674C44.3274 13.2208 45.4565 15.1765 44.5319 16.6844L44.4323 16.8329L36.8795 27.3162C35.8152 28.7935 33.554 28.4508 32.944 26.785L32.8903 26.62L31.9606 23.369C31.774 22.7163 31.8941 22.0313 32.2575 21.492C31.6675 21.5327 31.0734 21.3408 30.6159 20.9383L30.484 20.8123L28.1334 18.3817C26.8276 17.0306 27.6556 14.7682 29.525 14.5789L42.3805 13.2791L42.5592 13.2674ZM33.985 22.5418C33.8947 22.6021 33.8538 22.7148 33.8834 22.8192L34.8131 26.0702L34.8434 26.1375C34.9339 26.2788 35.1496 26.2957 35.2565 26.1473L41.4293 17.5789L33.985 22.5418ZM29.7262 16.5682C29.5188 16.5894 29.4273 16.841 29.5719 16.9911L31.9215 19.4217L31.985 19.4696C32.0545 19.5062 32.1393 19.5086 32.2125 19.4725L40.233 15.5057L29.7262 16.5682Z" fill="#F6F6F6"/>
</svg>
