<svg width="14" height="14" viewBox="0 0 14 14" fill="none" xmlns="http://www.w3.org/2000/svg">
<path fill-rule="evenodd" clip-rule="evenodd" d="M7 1.75C5.38917 1.75 4.08333 3.05584 4.08333 4.66667C4.08333 6.2775 5.38917 7.58333 7 7.58333C8.61083 7.58333 9.91667 6.2775 9.91667 4.66667C9.91667 3.05584 8.61083 1.75 7 1.75ZM5.25 4.66667C5.25 3.70017 6.0335 2.91667 7 2.91667C7.9665 2.91667 8.75 3.70017 8.75 4.66667C8.75 5.63316 7.9665 6.41667 7 6.41667C6.0335 6.41667 5.25 5.63316 5.25 4.66667Z" fill="#6E50DB"/>
<path fill-rule="evenodd" clip-rule="evenodd" d="M14 7C14 10.866 10.866 14 7 14L6.99068 14C3.12897 13.995 0 10.8629 0 7C0 3.13401 3.13401 0 7 0C10.866 0 14 3.13401 14 7ZM1.16667 7C1.16667 3.77834 3.77834 1.16667 7 1.16667C10.2217 1.16667 12.8333 3.77834 12.8333 7C12.8333 8.3924 12.3455 9.67086 11.5314 10.6738C11.5074 10.6185 11.4801 10.5632 11.4493 10.508C10.6583 9.08683 9.01348 7.58333 6.99821 7.58333C4.98293 7.58333 3.33816 9.08684 2.54712 10.508C2.51686 10.5623 2.49 10.6167 2.46642 10.6711C1.65364 9.66855 1.16667 8.39115 1.16667 7ZM4.35658 12.1512C5.14991 12.5747 6.24701 12.8325 6.99439 12.8333L6.99821 12.8333C7.74806 12.8333 8.85128 12.5802 9.64652 12.1591C10.0473 11.9469 10.3042 11.7261 10.4234 11.535C10.5164 11.3859 10.5318 11.2585 10.4299 11.0754C9.75402 9.8611 8.43165 8.75 6.99821 8.75C5.56477 8.75 4.24241 9.8611 3.5665 11.0754C3.4699 11.2489 3.4829 11.3726 3.57764 11.5235C3.69812 11.7155 3.95629 11.9375 4.35658 12.1512Z" fill="#6E50DB"/>
</svg>
