<svg width="14" height="14" viewBox="0 0 14 14" fill="none" xmlns="http://www.w3.org/2000/svg">
<path fill-rule="evenodd" clip-rule="evenodd" d="M8.33838 1.39128C7.53497 0.828886 6.46564 0.828884 5.66222 1.39127L1.6503 4.19962C0.974443 4.67272 0.598647 5.46755 0.661921 6.29012L1.07318 11.6365C1.15075 12.6448 2.06437 13.3777 3.06551 13.2347L4.91446 12.9706C5.77659 12.8474 6.41697 12.109 6.41697 11.2382V10.5C6.41697 10.1778 6.67814 9.91667 7.0003 9.91667C7.32247 9.91667 7.58363 10.1778 7.58363 10.5V11.2382C7.58363 12.109 8.22401 12.8474 9.08615 12.9706L10.9351 13.2347C11.9362 13.3777 12.8499 12.6448 12.9274 11.6365L13.3387 6.29012C13.402 5.46756 13.0262 4.67272 12.3503 4.19962L8.33838 1.39128ZM6.33126 2.34704C6.73297 2.06585 7.26763 2.06585 7.66934 2.34705L11.6813 5.15539C12.0192 5.39194 12.2071 5.78936 12.1755 6.20064L11.7642 11.547C11.7383 11.8831 11.4338 12.1274 11.1001 12.0798L9.25114 11.8156C8.96376 11.7746 8.7503 11.5285 8.7503 11.2382V10.5C8.7503 9.5335 7.9668 8.75 7.0003 8.75C6.0338 8.75 5.2503 9.5335 5.2503 10.5V11.2382C5.2503 11.5285 5.03684 11.7746 4.74947 11.8156L2.90052 12.0798C2.56681 12.1274 2.26227 11.8831 2.23641 11.547L1.82515 6.20064C1.79351 5.78936 1.98141 5.39194 2.31934 5.15539L6.33126 2.34704Z" fill="#6E50DB"/>
</svg>
